<?xml version="1.0" encoding="utf-8"?><!-- Uploaded to: SVG Repo, www.svgrepo.com, Generator: SVG Repo Mixer Tools -->
<svg fill="#000000" width="800px" height="800px" viewBox="0 -4 46 46" xmlns="http://www.w3.org/2000/svg">
  <path id="_02.Shop" data-name="02.Shop" d="M43,43H8a4,4,0,0,1-4-4V19.858A3.989,3.989,0,0,1,1,16V13a.989.989,0,0,1,.107-.433c0-.009.012-.015.017-.023a.983.983,0,0,1,.271-.32L8.225,5.4A.981.981,0,0,1,9,5H43a4,4,0,0,1,4,4h0V39A4,4,0,0,1,43,43ZM15,41h0V32H11v9h4ZM3,16a2,2,0,0,0,4,0V14H3ZM9.381,7l-5,5H7.619l5-5ZM9,16a2,2,0,0,0,4,0V14H9Zm6.381-9-5,5h3.238l5-5ZM15,16a2,2,0,0,0,4,0V14H15Zm6.381-9-5,5h3.238l5-5ZM21,16a2,2,0,0,0,4,0V14H21Zm6.381-9-5,5h3.238l5-5ZM32,8.381l-5,5V16a3.985,3.985,0,0,1-7,2.621,3.953,3.953,0,0,1-6,0,3.953,3.953,0,0,1-6,0,4.007,4.007,0,0,1-2,1.239V39a2,2,0,0,0,2,2H9V31a1,1,0,0,1,1-1h6a1,1,0,0,1,1,1V41H30a2,2,0,0,0,2-2ZM45,9a2,2,0,0,0-2-2H34V39a3.955,3.955,0,0,1-.555,2H43a2,2,0,0,0,2-2ZM28,32H20a1,1,0,0,1-1-1V24a1,1,0,0,1,1-1h8a1,1,0,0,1,1,1v7A1,1,0,0,1,28,32Zm-1-7H21v5h6Z" transform="translate(-1 -5)" fill-rule="evenodd"/>
</svg>