<?xml version="1.0" encoding="iso-8859-1"?>
<!-- Uploaded to: SVG Repo, www.svgrepo.com, Generator: SVG Repo Mixer Tools -->
<svg version="1.1" id="Layer_1" xmlns="http://www.w3.org/2000/svg" xmlns:xlink="http://www.w3.org/1999/xlink" 
	 viewBox="0 0 512 512" xml:space="preserve">
<rect x="39.051" y="208.271" style="fill:#EBEBEC;" width="433.898" height="295.051"/>
<rect x="39.051" y="208.271" style="fill:#D7D8D9;" width="26.034" height="295.051"/>
<path style="fill:#FDDD85;" d="M457.033,6.908C456.194,2.884,452.647,0,448.537,0h-45.012H342.78h-52.068h-69.424H169.22h-60.746
	H63.463c-4.11,0-7.657,2.884-8.496,6.908l-41.95,201.364c0,19.171,15.541,34.712,34.712,34.712s34.712-15.541,34.712-34.712
	c0,19.171,15.541,34.712,34.712,34.712s34.712-15.541,34.712-34.712c0,19.171,15.541,34.712,34.712,34.712
	s34.712-15.541,34.712-34.712c0,19.171,15.541,34.712,34.712,34.712s34.712-15.541,34.712-34.712
	c0,19.171,15.541,34.712,34.712,34.712s34.712-15.541,34.712-34.712c0,19.171,15.541,34.712,34.712,34.712
	c19.171,0,34.712-15.541,34.712-34.712c0,19.171,15.541,34.712,34.712,34.712s34.712-15.541,34.712-34.712L457.033,6.908z"/>
<path style="fill:#E5563C;" d="M63.463,0c-4.11,0-7.657,2.884-8.496,6.908l-41.95,201.364c0,19.171,15.541,34.712,34.712,34.712
	s34.712-15.541,34.712-34.712L108.475,0H63.463z"/>
<path style="fill:#CF442B;" d="M47.729,242.983c19.171,0,34.712-15.541,34.712-34.712H13.017
	C13.017,227.442,28.558,242.983,47.729,242.983L47.729,242.983z"/>
<path style="fill:#FDDD85;" d="M108.475,0L82.441,208.271c0,19.171,15.541,34.712,34.712,34.712s34.712-15.541,34.712-34.712
	L169.22,0H108.475z"/>
<path style="fill:#FDD042;" d="M117.153,242.983c19.171,0,34.712-15.541,34.712-34.712H82.441
	C82.441,227.442,97.982,242.983,117.153,242.983L117.153,242.983z"/>
<path style="fill:#E5563C;" d="M169.22,0l-17.356,208.271c0,19.171,15.541,34.712,34.712,34.712s34.712-15.541,34.712-34.712V0
	H169.22z"/>
<path style="fill:#CF442B;" d="M186.576,242.983c19.171,0,34.712-15.541,34.712-34.712h-69.424
	C151.864,227.442,167.406,242.983,186.576,242.983L186.576,242.983z"/>
<path style="fill:#FDDD85;" d="M221.288,0v208.271c0,19.171,15.541,34.712,34.712,34.712s34.712-15.541,34.712-34.712V0H221.288z"/>
<path style="fill:#FDD042;" d="M256,242.983c19.171,0,34.712-15.541,34.712-34.712h-69.424
	C221.288,227.442,236.829,242.983,256,242.983L256,242.983z"/>
<path style="fill:#E5563C;" d="M342.78,0h-52.068v208.271c0,19.171,15.541,34.712,34.712,34.712s34.712-15.541,34.712-34.712
	L342.78,0z"/>
<path style="fill:#CF442B;" d="M325.424,242.983c19.171,0,34.712-15.541,34.712-34.712h-69.424
	C290.712,227.442,306.253,242.983,325.424,242.983L325.424,242.983z"/>
<path style="fill:#FDDD85;" d="M403.525,0H342.78l17.356,208.271c0,19.171,15.541,34.712,34.712,34.712
	c19.171,0,34.712-15.541,34.712-34.712L403.525,0z"/>
<path style="fill:#FDD042;" d="M394.847,242.983L394.847,242.983c19.171,0,34.712-15.541,34.712-34.712h-69.424
	C360.136,227.442,375.677,242.983,394.847,242.983z"/>
<path style="fill:#E5563C;" d="M457.033,6.908C456.194,2.884,452.647,0,448.537,0h-45.012l26.034,208.271
	c0,19.171,15.541,34.712,34.712,34.712s34.712-15.541,34.712-34.712L457.033,6.908z"/>
<path style="fill:#CF442B;" d="M464.271,242.983c19.171,0,34.712-15.541,34.712-34.712h-69.424
	C429.559,227.442,445.1,242.983,464.271,242.983L464.271,242.983z"/>
<path style="fill:#E5563C;" d="M63.463,0h45.012L82.441,208.271H13.017L54.967,6.908C55.806,2.884,59.353,0,63.463,0z"/>
<polygon style="fill:#FDDD85;" points="108.475,0 169.22,0 151.864,208.271 82.441,208.271 "/>
<g>
	<polygon style="fill:#E5563C;" points="169.22,0 221.288,0 221.288,208.271 151.864,208.271 	"/>
	<path style="fill:#E5563C;" d="M448.537,0h-45.012l26.034,208.271h69.424L457.033,6.908C456.194,2.884,452.647,0,448.537,0z"/>
</g>
<polygon style="fill:#FDDD85;" points="403.525,0 342.78,0 360.136,208.271 429.559,208.271 "/>
<polygon style="fill:#E5563C;" points="342.78,0 290.712,0 290.712,208.271 360.136,208.271 "/>
<rect x="221.288" style="fill:#FDDD85;" width="69.424" height="208.271"/>
<path style="fill:#74757B;" d="M221.288,260.339H82.441c-4.792,0-8.678,3.886-8.678,8.678v225.627c0,4.792,3.886,8.678,8.678,8.678
	h138.847c4.792,0,8.678-3.886,8.678-8.678V269.017C229.966,264.225,226.081,260.339,221.288,260.339z"/>
<path style="fill:#606268;" d="M99.797,494.644V269.017c0-4.792,3.886-8.678,8.678-8.678H82.441c-4.792,0-8.678,3.886-8.678,8.678
	v225.627c0,4.792,3.886,8.678,8.678,8.678h26.034C103.682,503.322,99.797,499.436,99.797,494.644z"/>
<circle style="fill:#E1A527;" cx="195.254" cy="381.831" r="17.356"/>
<circle style="fill:#FDD042;" cx="195.254" cy="381.831" r="8.678"/>
<path style="fill:#4C4E55;" d="M498.983,512H13.017c-4.792,0-8.678-3.886-8.678-8.678c0-4.792,3.886-8.678,8.678-8.678h485.966
	c4.792,0,8.678,3.886,8.678,8.678C507.661,508.114,503.775,512,498.983,512z"/>
<rect x="273.356" y="269.017" style="fill:#CFF6F1;" width="138.847" height="104.136"/>
<g>
	<polygon style="fill:#6AC8B7;" points="381.831,373.153 412.203,373.153 412.203,342.78 	"/>
	<polygon style="fill:#6AC8B7;" points="395.932,269.017 291.797,373.153 363.751,373.153 412.203,324.7 412.203,269.017 	"/>
	<polygon style="fill:#6AC8B7;" points="273.356,269.017 273.356,344.226 348.565,269.017 	"/>
</g>
<path style="fill:#88898E;" d="M429.559,364.475h-8.678v-95.458c0-4.792-3.886-8.678-8.678-8.678H273.356
	c-4.792,0-8.678,3.886-8.678,8.678v95.458H256c-4.792,0-8.678,3.886-8.678,8.678c0,4.792,3.886,8.678,8.678,8.678h173.559
	c4.792,0,8.678-3.886,8.678-8.678C438.237,368.36,434.352,364.475,429.559,364.475z M282.034,364.475v-86.78h121.492v86.78H282.034z
	"/>
</svg>